<mxfile host="app.diagrams.net" modified="2024-06-11T15:34:45.866Z" agent="Mozilla/5.0 (Windows NT 10.0; Win64; x64; rv:126.0) Gecko/20100101 Firefox/126.0" etag="gJom-2NNXIL6NShnOYBG" version="24.5.2" type="device">
  <diagram name="Pagina-1" id="xTbnQpQgxN4heTjvWwDx">
    <mxGraphModel dx="1050" dy="626" grid="1" gridSize="10" guides="1" tooltips="1" connect="1" arrows="1" fold="1" page="1" pageScale="1" pageWidth="827" pageHeight="1169" math="0" shadow="0">
      <root>
        <mxCell id="0" />
        <mxCell id="1" parent="0" />
        <mxCell id="wrPnPRhxaZkD8QkCvjx3-1" value="User" style="swimlane;whiteSpace=wrap;direction=east;align=left;" vertex="1" parent="1">
          <mxGeometry x="40" y="120" width="830" height="100" as="geometry" />
        </mxCell>
        <mxCell id="wrPnPRhxaZkD8QkCvjx3-2" style="edgeStyle=orthogonalEdgeStyle;rounded=0;orthogonalLoop=1;jettySize=auto;html=1;entryX=0;entryY=0.5;entryDx=0;entryDy=0;strokeColor=#FF0000;endArrow=open;endFill=0;" edge="1" parent="wrPnPRhxaZkD8QkCvjx3-1" source="wrPnPRhxaZkD8QkCvjx3-3" target="wrPnPRhxaZkD8QkCvjx3-6">
          <mxGeometry relative="1" as="geometry" />
        </mxCell>
        <mxCell id="wrPnPRhxaZkD8QkCvjx3-3" value="&lt;div&gt;Launch the analysis&lt;/div&gt;&lt;div&gt;from CLI&lt;br&gt;&lt;/div&gt;" style="rounded=1;whiteSpace=wrap;html=1;arcSize=40;fontColor=#000000;fillColor=#ffffc0;strokeColor=#ff0000;" vertex="1" parent="wrPnPRhxaZkD8QkCvjx3-1">
          <mxGeometry x="130" y="40" width="120" height="40" as="geometry" />
        </mxCell>
        <mxCell id="wrPnPRhxaZkD8QkCvjx3-4" style="edgeStyle=orthogonalEdgeStyle;rounded=0;orthogonalLoop=1;jettySize=auto;html=1;entryX=0;entryY=0.5;entryDx=0;entryDy=0;endArrow=open;endFill=0;strokeColor=#FF0000;" edge="1" parent="wrPnPRhxaZkD8QkCvjx3-1" source="wrPnPRhxaZkD8QkCvjx3-5" target="wrPnPRhxaZkD8QkCvjx3-3">
          <mxGeometry relative="1" as="geometry" />
        </mxCell>
        <mxCell id="wrPnPRhxaZkD8QkCvjx3-5" value="" style="ellipse;html=1;shape=startState;fillColor=#000000;strokeColor=#ff0000;direction=west;" vertex="1" parent="wrPnPRhxaZkD8QkCvjx3-1">
          <mxGeometry x="40" y="45" width="30" height="30" as="geometry" />
        </mxCell>
        <mxCell id="wrPnPRhxaZkD8QkCvjx3-6" value="Visualize results" style="rounded=1;whiteSpace=wrap;html=1;arcSize=40;fontColor=#000000;fillColor=#ffffc0;strokeColor=#ff0000;" vertex="1" parent="wrPnPRhxaZkD8QkCvjx3-1">
          <mxGeometry x="570" y="40" width="120" height="40" as="geometry" />
        </mxCell>
        <mxCell id="wrPnPRhxaZkD8QkCvjx3-7" value="Data Processing" style="swimlane;whiteSpace=wrap;direction=east;align=left;" vertex="1" parent="1">
          <mxGeometry x="40" y="220" width="830" height="330" as="geometry" />
        </mxCell>
        <mxCell id="wrPnPRhxaZkD8QkCvjx3-8" value="Load data" style="rounded=1;whiteSpace=wrap;html=1;arcSize=40;fontColor=#000000;fillColor=#ffffc0;strokeColor=#ff0000;" vertex="1" parent="wrPnPRhxaZkD8QkCvjx3-7">
          <mxGeometry x="130" y="40" width="120" height="40" as="geometry" />
        </mxCell>
        <mxCell id="wrPnPRhxaZkD8QkCvjx3-9" style="edgeStyle=orthogonalEdgeStyle;rounded=0;orthogonalLoop=1;jettySize=auto;html=1;strokeColor=#FF0000;endArrow=open;endFill=0;" edge="1" parent="wrPnPRhxaZkD8QkCvjx3-7" source="wrPnPRhxaZkD8QkCvjx3-8">
          <mxGeometry relative="1" as="geometry">
            <mxPoint x="280" y="60" as="targetPoint" />
          </mxGeometry>
        </mxCell>
        <mxCell id="wrPnPRhxaZkD8QkCvjx3-38" style="edgeStyle=orthogonalEdgeStyle;rounded=0;orthogonalLoop=1;jettySize=auto;html=1;entryX=0;entryY=0.5;entryDx=0;entryDy=0;endArrow=open;endFill=0;strokeColor=#FF0000;" edge="1" parent="wrPnPRhxaZkD8QkCvjx3-7" source="wrPnPRhxaZkD8QkCvjx3-11" target="wrPnPRhxaZkD8QkCvjx3-37">
          <mxGeometry relative="1" as="geometry" />
        </mxCell>
        <mxCell id="wrPnPRhxaZkD8QkCvjx3-11" value="&lt;div&gt;Convert dates&lt;/div&gt;&lt;div&gt;to datetime&lt;br&gt;&lt;/div&gt;" style="rounded=1;whiteSpace=wrap;html=1;arcSize=40;fontColor=#000000;fillColor=#ffffc0;strokeColor=#ff0000;" vertex="1" parent="wrPnPRhxaZkD8QkCvjx3-7">
          <mxGeometry x="280" y="40" width="120" height="40" as="geometry" />
        </mxCell>
        <mxCell id="wrPnPRhxaZkD8QkCvjx3-48" style="edgeStyle=orthogonalEdgeStyle;rounded=0;orthogonalLoop=1;jettySize=auto;html=1;exitX=0.5;exitY=1;exitDx=0;exitDy=0;entryX=1;entryY=0.5;entryDx=0;entryDy=0;strokeColor=#FF0000;endArrow=open;endFill=0;" edge="1" parent="wrPnPRhxaZkD8QkCvjx3-7" source="wrPnPRhxaZkD8QkCvjx3-35" target="wrPnPRhxaZkD8QkCvjx3-47">
          <mxGeometry relative="1" as="geometry" />
        </mxCell>
        <mxCell id="wrPnPRhxaZkD8QkCvjx3-35" value="Impute NA" style="rounded=1;whiteSpace=wrap;html=1;arcSize=40;fontColor=#000000;fillColor=#ffffc0;strokeColor=#ff0000;" vertex="1" parent="wrPnPRhxaZkD8QkCvjx3-7">
          <mxGeometry x="530" y="120" width="120" height="40" as="geometry" />
        </mxCell>
        <mxCell id="wrPnPRhxaZkD8QkCvjx3-49" style="edgeStyle=orthogonalEdgeStyle;rounded=0;orthogonalLoop=1;jettySize=auto;html=1;exitX=0.5;exitY=1;exitDx=0;exitDy=0;entryX=0;entryY=0.5;entryDx=0;entryDy=0;strokeColor=#FF0000;endArrow=open;endFill=0;" edge="1" parent="wrPnPRhxaZkD8QkCvjx3-7" source="wrPnPRhxaZkD8QkCvjx3-36" target="wrPnPRhxaZkD8QkCvjx3-47">
          <mxGeometry relative="1" as="geometry" />
        </mxCell>
        <mxCell id="wrPnPRhxaZkD8QkCvjx3-36" value="Drop NA" style="rounded=1;whiteSpace=wrap;html=1;arcSize=40;fontColor=#000000;fillColor=#ffffc0;strokeColor=#ff0000;" vertex="1" parent="wrPnPRhxaZkD8QkCvjx3-7">
          <mxGeometry x="350" y="120" width="120" height="40" as="geometry" />
        </mxCell>
        <mxCell id="wrPnPRhxaZkD8QkCvjx3-45" style="edgeStyle=orthogonalEdgeStyle;rounded=0;orthogonalLoop=1;jettySize=auto;html=1;strokeColor=#FF0000;endArrow=open;endFill=0;" edge="1" parent="wrPnPRhxaZkD8QkCvjx3-7" source="wrPnPRhxaZkD8QkCvjx3-37" target="wrPnPRhxaZkD8QkCvjx3-35">
          <mxGeometry relative="1" as="geometry">
            <Array as="points">
              <mxPoint x="490" y="100" />
              <mxPoint x="590" y="100" />
            </Array>
          </mxGeometry>
        </mxCell>
        <mxCell id="wrPnPRhxaZkD8QkCvjx3-46" style="edgeStyle=orthogonalEdgeStyle;rounded=0;orthogonalLoop=1;jettySize=auto;html=1;exitX=0.5;exitY=1;exitDx=0;exitDy=0;strokeColor=#FF0000;endArrow=open;endFill=0;" edge="1" parent="wrPnPRhxaZkD8QkCvjx3-7" source="wrPnPRhxaZkD8QkCvjx3-37" target="wrPnPRhxaZkD8QkCvjx3-36">
          <mxGeometry relative="1" as="geometry" />
        </mxCell>
        <mxCell id="wrPnPRhxaZkD8QkCvjx3-37" value="Filter rows" style="rounded=1;whiteSpace=wrap;html=1;arcSize=40;fontColor=#000000;fillColor=#ffffc0;strokeColor=#ff0000;" vertex="1" parent="wrPnPRhxaZkD8QkCvjx3-7">
          <mxGeometry x="430" y="40" width="120" height="40" as="geometry" />
        </mxCell>
        <mxCell id="wrPnPRhxaZkD8QkCvjx3-47" value="Collapse + avg/max" style="rounded=1;whiteSpace=wrap;html=1;arcSize=40;fontColor=#000000;fillColor=#ffffc0;strokeColor=#ff0000;" vertex="1" parent="wrPnPRhxaZkD8QkCvjx3-7">
          <mxGeometry x="440" y="170" width="120" height="40" as="geometry" />
        </mxCell>
        <mxCell id="wrPnPRhxaZkD8QkCvjx3-17" value="Perform Analysis" style="swimlane;whiteSpace=wrap;direction=east;startSize=23;align=left;" vertex="1" parent="1">
          <mxGeometry x="40" y="550" width="830" height="390" as="geometry" />
        </mxCell>
        <mxCell id="wrPnPRhxaZkD8QkCvjx3-19" value="Scatter plot" style="rounded=1;whiteSpace=wrap;html=1;arcSize=40;fontColor=#000000;fillColor=#ffffc0;strokeColor=#ff0000;" vertex="1" parent="wrPnPRhxaZkD8QkCvjx3-17">
          <mxGeometry x="60" y="200" width="120" height="40" as="geometry" />
        </mxCell>
        <mxCell id="wrPnPRhxaZkD8QkCvjx3-70" style="edgeStyle=orthogonalEdgeStyle;rounded=0;orthogonalLoop=1;jettySize=auto;html=1;exitX=0.5;exitY=1;exitDx=0;exitDy=0;entryX=0.5;entryY=0;entryDx=0;entryDy=0;strokeColor=#FF0000;endArrow=open;endFill=0;" edge="1" parent="wrPnPRhxaZkD8QkCvjx3-17" source="wrPnPRhxaZkD8QkCvjx3-21" target="wrPnPRhxaZkD8QkCvjx3-56">
          <mxGeometry relative="1" as="geometry" />
        </mxCell>
        <mxCell id="wrPnPRhxaZkD8QkCvjx3-21" value="&lt;div&gt;Pearson test&lt;/div&gt;&lt;div&gt;for correlation&lt;br&gt;&lt;/div&gt;" style="rounded=1;whiteSpace=wrap;html=1;arcSize=40;fontColor=#000000;fillColor=#ffffc0;strokeColor=#ff0000;" vertex="1" parent="wrPnPRhxaZkD8QkCvjx3-17">
          <mxGeometry x="555" y="40" width="120" height="40" as="geometry" />
        </mxCell>
        <mxCell id="wrPnPRhxaZkD8QkCvjx3-24" value="" style="ellipse;html=1;shape=endState;fillColor=#000000;strokeColor=#ff0000;" vertex="1" parent="wrPnPRhxaZkD8QkCvjx3-17">
          <mxGeometry x="395" y="350" width="30" height="30" as="geometry" />
        </mxCell>
        <mxCell id="wrPnPRhxaZkD8QkCvjx3-27" value="Bar plot" style="rounded=1;whiteSpace=wrap;html=1;arcSize=40;fontColor=#000000;fillColor=#ffffc0;strokeColor=#ff0000;" vertex="1" parent="wrPnPRhxaZkD8QkCvjx3-17">
          <mxGeometry x="240" y="200" width="120" height="40" as="geometry" />
        </mxCell>
        <mxCell id="wrPnPRhxaZkD8QkCvjx3-53" value="Line plot" style="rounded=1;whiteSpace=wrap;html=1;arcSize=40;fontColor=#000000;fillColor=#ffffc0;strokeColor=#ff0000;" vertex="1" parent="wrPnPRhxaZkD8QkCvjx3-17">
          <mxGeometry x="400" y="200" width="120" height="40" as="geometry" />
        </mxCell>
        <mxCell id="wrPnPRhxaZkD8QkCvjx3-59" style="edgeStyle=orthogonalEdgeStyle;rounded=0;orthogonalLoop=1;jettySize=auto;html=1;entryX=0.5;entryY=0;entryDx=0;entryDy=0;strokeColor=#FF0000;endArrow=open;endFill=0;" edge="1" parent="wrPnPRhxaZkD8QkCvjx3-17" source="wrPnPRhxaZkD8QkCvjx3-56" target="wrPnPRhxaZkD8QkCvjx3-62">
          <mxGeometry relative="1" as="geometry">
            <mxPoint x="615" y="190" as="targetPoint" />
          </mxGeometry>
        </mxCell>
        <mxCell id="wrPnPRhxaZkD8QkCvjx3-56" value="|Correlation|&amp;gt;0.80" style="rhombus;whiteSpace=wrap;html=1;fontColor=#000000;fillColor=#ffffc0;strokeColor=#ff0000;" vertex="1" parent="wrPnPRhxaZkD8QkCvjx3-17">
          <mxGeometry x="570" y="90" width="90" height="60" as="geometry" />
        </mxCell>
        <mxCell id="wrPnPRhxaZkD8QkCvjx3-57" value="No" style="edgeStyle=orthogonalEdgeStyle;html=1;align=left;verticalAlign=bottom;endArrow=open;endSize=8;strokeColor=#ff0000;rounded=0;" edge="1" parent="wrPnPRhxaZkD8QkCvjx3-17" source="wrPnPRhxaZkD8QkCvjx3-56">
          <mxGeometry x="-1" relative="1" as="geometry">
            <mxPoint x="710" y="120" as="targetPoint" />
          </mxGeometry>
        </mxCell>
        <mxCell id="wrPnPRhxaZkD8QkCvjx3-88" style="edgeStyle=orthogonalEdgeStyle;rounded=0;orthogonalLoop=1;jettySize=auto;html=1;exitX=1;exitY=0.5;exitDx=0;exitDy=0;strokeColor=#FF0000;endArrow=open;endFill=0;" edge="1" parent="wrPnPRhxaZkD8QkCvjx3-17" source="wrPnPRhxaZkD8QkCvjx3-60">
          <mxGeometry relative="1" as="geometry">
            <mxPoint x="780" y="120" as="targetPoint" />
          </mxGeometry>
        </mxCell>
        <mxCell id="wrPnPRhxaZkD8QkCvjx3-60" value="Log results" style="rounded=1;whiteSpace=wrap;html=1;arcSize=40;fontColor=#000000;fillColor=#ffffc0;strokeColor=#ff0000;" vertex="1" parent="wrPnPRhxaZkD8QkCvjx3-17">
          <mxGeometry x="707" y="100" width="63" height="40" as="geometry" />
        </mxCell>
        <mxCell id="wrPnPRhxaZkD8QkCvjx3-64" style="edgeStyle=orthogonalEdgeStyle;rounded=0;orthogonalLoop=1;jettySize=auto;html=1;exitX=0;exitY=0.5;exitDx=0;exitDy=0;entryX=1;entryY=0.5;entryDx=0;entryDy=0;endArrow=open;endFill=0;strokeColor=#FF0000;" edge="1" parent="wrPnPRhxaZkD8QkCvjx3-17" source="wrPnPRhxaZkD8QkCvjx3-62" target="wrPnPRhxaZkD8QkCvjx3-53">
          <mxGeometry relative="1" as="geometry" />
        </mxCell>
        <mxCell id="wrPnPRhxaZkD8QkCvjx3-65" style="edgeStyle=orthogonalEdgeStyle;rounded=0;orthogonalLoop=1;jettySize=auto;html=1;exitX=1;exitY=0.5;exitDx=0;exitDy=0;entryX=0.5;entryY=1;entryDx=0;entryDy=0;strokeColor=#FF0000;endArrow=open;endFill=0;" edge="1" parent="wrPnPRhxaZkD8QkCvjx3-17" source="wrPnPRhxaZkD8QkCvjx3-62" target="wrPnPRhxaZkD8QkCvjx3-60">
          <mxGeometry relative="1" as="geometry" />
        </mxCell>
        <mxCell id="wrPnPRhxaZkD8QkCvjx3-62" value="Linear Regression" style="rounded=1;whiteSpace=wrap;html=1;arcSize=40;fontColor=#000000;fillColor=#ffffc0;strokeColor=#ff0000;" vertex="1" parent="wrPnPRhxaZkD8QkCvjx3-17">
          <mxGeometry x="555" y="200" width="120" height="40" as="geometry" />
        </mxCell>
        <mxCell id="wrPnPRhxaZkD8QkCvjx3-61" value="Yes" style="text;html=1;align=center;verticalAlign=middle;resizable=0;points=[];autosize=1;strokeColor=none;fillColor=none;" vertex="1" parent="wrPnPRhxaZkD8QkCvjx3-17">
          <mxGeometry x="610" y="150" width="40" height="30" as="geometry" />
        </mxCell>
        <mxCell id="wrPnPRhxaZkD8QkCvjx3-85" style="edgeStyle=orthogonalEdgeStyle;rounded=0;orthogonalLoop=1;jettySize=auto;html=1;exitX=0.5;exitY=1;exitDx=0;exitDy=0;entryX=0.5;entryY=0;entryDx=0;entryDy=0;strokeColor=#FF0000;endArrow=open;endFill=0;" edge="1" parent="wrPnPRhxaZkD8QkCvjx3-17" source="wrPnPRhxaZkD8QkCvjx3-74" target="wrPnPRhxaZkD8QkCvjx3-24">
          <mxGeometry relative="1" as="geometry" />
        </mxCell>
        <mxCell id="wrPnPRhxaZkD8QkCvjx3-74" value="Save results" style="rounded=1;whiteSpace=wrap;html=1;arcSize=40;fontColor=#000000;fillColor=#ffffc0;strokeColor=#ff0000;" vertex="1" parent="wrPnPRhxaZkD8QkCvjx3-17">
          <mxGeometry x="60" y="270" width="700" height="40" as="geometry" />
        </mxCell>
        <mxCell id="wrPnPRhxaZkD8QkCvjx3-79" style="edgeStyle=orthogonalEdgeStyle;rounded=0;orthogonalLoop=1;jettySize=auto;html=1;exitX=0.5;exitY=1;exitDx=0;exitDy=0;entryX=0.084;entryY=-0.025;entryDx=0;entryDy=0;entryPerimeter=0;strokeColor=#FF0000;endArrow=open;endFill=0;" edge="1" parent="wrPnPRhxaZkD8QkCvjx3-17" source="wrPnPRhxaZkD8QkCvjx3-19" target="wrPnPRhxaZkD8QkCvjx3-74">
          <mxGeometry relative="1" as="geometry" />
        </mxCell>
        <mxCell id="wrPnPRhxaZkD8QkCvjx3-83" style="edgeStyle=orthogonalEdgeStyle;rounded=0;orthogonalLoop=1;jettySize=auto;html=1;exitX=0.5;exitY=1;exitDx=0;exitDy=0;entryX=0.343;entryY=0;entryDx=0;entryDy=0;entryPerimeter=0;strokeColor=#FF0000;endArrow=open;endFill=0;" edge="1" parent="wrPnPRhxaZkD8QkCvjx3-17" source="wrPnPRhxaZkD8QkCvjx3-27" target="wrPnPRhxaZkD8QkCvjx3-74">
          <mxGeometry relative="1" as="geometry" />
        </mxCell>
        <mxCell id="wrPnPRhxaZkD8QkCvjx3-84" style="edgeStyle=orthogonalEdgeStyle;rounded=0;orthogonalLoop=1;jettySize=auto;html=1;exitX=0.5;exitY=1;exitDx=0;exitDy=0;entryX=0.571;entryY=-0.025;entryDx=0;entryDy=0;entryPerimeter=0;strokeColor=#FF0000;endArrow=open;endFill=0;" edge="1" parent="wrPnPRhxaZkD8QkCvjx3-17" source="wrPnPRhxaZkD8QkCvjx3-53" target="wrPnPRhxaZkD8QkCvjx3-74">
          <mxGeometry relative="1" as="geometry" />
        </mxCell>
        <mxCell id="wrPnPRhxaZkD8QkCvjx3-29" style="edgeStyle=orthogonalEdgeStyle;rounded=0;orthogonalLoop=1;jettySize=auto;html=1;entryX=0.5;entryY=0;entryDx=0;entryDy=0;strokeColor=#FF0000;endArrow=open;endFill=0;" edge="1" parent="1" source="wrPnPRhxaZkD8QkCvjx3-3" target="wrPnPRhxaZkD8QkCvjx3-8">
          <mxGeometry relative="1" as="geometry" />
        </mxCell>
        <mxCell id="wrPnPRhxaZkD8QkCvjx3-66" style="edgeStyle=orthogonalEdgeStyle;rounded=0;orthogonalLoop=1;jettySize=auto;html=1;exitX=0.5;exitY=1;exitDx=0;exitDy=0;entryX=0.5;entryY=0;entryDx=0;entryDy=0;strokeColor=#FF0000;endArrow=open;endFill=0;" edge="1" parent="1" source="wrPnPRhxaZkD8QkCvjx3-47" target="wrPnPRhxaZkD8QkCvjx3-19">
          <mxGeometry relative="1" as="geometry" />
        </mxCell>
        <mxCell id="wrPnPRhxaZkD8QkCvjx3-67" style="edgeStyle=orthogonalEdgeStyle;rounded=0;orthogonalLoop=1;jettySize=auto;html=1;exitX=0.5;exitY=1;exitDx=0;exitDy=0;strokeColor=#FF0000;endArrow=open;endFill=0;" edge="1" parent="1" source="wrPnPRhxaZkD8QkCvjx3-47" target="wrPnPRhxaZkD8QkCvjx3-21">
          <mxGeometry relative="1" as="geometry" />
        </mxCell>
        <mxCell id="wrPnPRhxaZkD8QkCvjx3-71" style="edgeStyle=orthogonalEdgeStyle;rounded=0;orthogonalLoop=1;jettySize=auto;html=1;entryX=0.567;entryY=0;entryDx=0;entryDy=0;entryPerimeter=0;endArrow=open;endFill=0;strokeColor=#FF0000;" edge="1" parent="1" source="wrPnPRhxaZkD8QkCvjx3-47" target="wrPnPRhxaZkD8QkCvjx3-53">
          <mxGeometry relative="1" as="geometry" />
        </mxCell>
        <mxCell id="wrPnPRhxaZkD8QkCvjx3-72" style="edgeStyle=orthogonalEdgeStyle;rounded=0;orthogonalLoop=1;jettySize=auto;html=1;exitX=0.5;exitY=1;exitDx=0;exitDy=0;strokeColor=#FF0000;endArrow=open;endFill=0;" edge="1" parent="1" source="wrPnPRhxaZkD8QkCvjx3-47" target="wrPnPRhxaZkD8QkCvjx3-27">
          <mxGeometry relative="1" as="geometry" />
        </mxCell>
        <mxCell id="wrPnPRhxaZkD8QkCvjx3-87" style="edgeStyle=orthogonalEdgeStyle;rounded=0;orthogonalLoop=1;jettySize=auto;html=1;exitX=1;exitY=0.5;exitDx=0;exitDy=0;entryX=1;entryY=0.5;entryDx=0;entryDy=0;strokeColor=#FF0000;endArrow=open;endFill=0;" edge="1" parent="1" source="wrPnPRhxaZkD8QkCvjx3-74" target="wrPnPRhxaZkD8QkCvjx3-6">
          <mxGeometry relative="1" as="geometry" />
        </mxCell>
      </root>
    </mxGraphModel>
  </diagram>
</mxfile>
